<svg xmlns="http://www.w3.org/2000/svg" viewBox="0 0 489.8 490" style="enable-background:new 0 0 489.8 490" xml:space="preserve"><path d="m449 449.5 34.9-59c9-14 10.2-42.6-15.1-59L395.6 288c-9.9-5.9-21.5-7.6-32.6-4.7-11.2 2.8-20.5 9.8-26.4 19.7l-1.5 2.6c-.7 1-1.9.5-2 .4-38.9-32.7-98.4-87.5-149.6-149.9-.2-.3-.1-1.3.4-1.6l6.2-4c12.2-8 19.5-21.5 19.5-36.1 0-8.3-2.4-16.5-7-23.5l-46.5-71.4C149.8 9.9 140.2 3.3 128.9.9 117.6-1.5 106.1.7 96.5 7L37.4 45.6C14 60.9 0 86.8 0 114.8c0 14.7 4 29.2 11.5 41.9C57 233.6 159.9 377.6 337.3 479.2c38.7 22.2 88.9 8.9 111.7-29.7zm-91.4-5.8C188.4 346.9 90.5 209.1 46.7 135.9c-7.9-13.1-10.5-39.6 13.1-56.1l59.1-38.6c.5-.4 2.1-.8 3.1.6l46.5 71.4c.7.9.2 2.5-.8 3.1l-6.2 4c-11.9 7.8-19.1 21-19.1 35.4 0 9.8 3.4 19.3 9.7 26.9 55.2 66.5 114.6 120.8 154.7 154.6 9.5 8 22 11.4 34.2 9.3 12.3-2.1 23-9.4 29.3-20.1l1.5-2.6c.6-1 1.4-1.4 3-.8l73.2 43.5c1 .6 1.5 1.9.8 3.1l-34.9 59c-11.5 19.5-36.8 26.3-56.3 15.1zM247.6 23.2c0 11.3 9.1 20.4 20.4 20.4 94.3 0 171 76.7 171 171 0 11.3 9.1 20.4 20.4 20.4 11.3 0 20.4-9.1 20.4-20.4 0-116.8-95-211.8-211.8-211.8-11.3 0-20.4 9.1-20.4 20.4z"/><path d="M278.2 105.9c-11.3 0-20.4 9.1-20.4 20.4 0 11.3 9.1 20.4 20.5 20.5 31.8 0 57.7 25.9 57.7 57.7 0 11.3 9.1 20.4 20.4 20.4 11.3 0 20.4-9.1 20.4-20.4 0-54.4-44.3-98.6-98.6-98.6z"/></svg>