<svg xmlns="http://www.w3.org/2000/svg" viewBox="0 0 291.4 291.4" style="enable-background:new 0 0 291.4 291.4" xml:space="preserve"><path d="M283 176.6c2.1-9.5 3.2-19.3 3.2-29.4 0-75.7-62.2-137-138.9-137-8.1 0-16 .7-23.8 2C111.1 4.5 96.4 0 80.6 0 36.1 0 0 35.6 0 79.5c0 14.7 4.1 28.4 11.1 40.2-1.8 8.9-2.8 18.1-2.8 27.5C8.3 222.9 70.5 282 147.2 282c8.7 0 17.2-.8 25.4-2.3 11.4 6 24.3 11.7 38.1 11.7 44.5 0 80.6-35.6 80.6-79.5 0-12.7-3-24.7-8.3-35.3z" style="fill:#00aff0"/><path d="M210.6 203.1c-5.4 7.6-13.2 13.6-23.5 17.9-10.3 4.3-22.6 6.5-36.7 6.5-17 0-31-2.9-42-8.9-7.8-4.2-14.2-9.9-19.1-17-4.9-7.1-7.3-14-7.3-20.7 0-3.9 1.5-7.2 4.4-10 2.9-2.8 6.7-4.2 11.2-4.2 3.7 0 6.8 1.1 9.3 3.2 2.5 2.2 4.7 5.4 6.5 9.6 2.2 5.1 4.6 9.3 7.1 12.6 2.5 3.4 6.1 6.2 10.7 8.4s10.7 3.3 18.2 3.3c10.3 0 18.7-2.2 25.2-6.6 6.4-4.4 9.7-10 9.7-16.6 0-5.2-1.7-9.5-5.2-12.8-3.5-3.3-8-5.8-13.5-7.5-5.5-1.7-12.9-3.6-22.1-5.5-12.4-2.6-22.7-5.8-31-9.3-8.3-3.6-15-8.4-19.8-14.6-4.9-6.2-7.3-13.8-7.3-22.9 0-8.7 2.6-16.4 7.7-23.2 5.2-6.8 12.6-12 22.4-15.6 9.8-3.6 21.3-5.5 34.5-5.5 10.6 0 19.7 1.2 27.4 3.6 7.7 2.4 14.1 5.6 19.2 9.6s8.8 8.2 11.2 12.6c2.3 4.4 3.5 8.7 3.5 12.8 0 3.8-1.5 7.3-4.4 10.3-2.9 3.1-6.6 4.6-11 4.6-4 0-7-.9-9.1-2.8-2.1-1.8-4.3-4.8-6.7-9-3.1-6-6.9-10.6-11.3-14-4.4-3.3-11.4-5-21.1-5-9 0-16.2 1.8-21.8 5.5-5.5 3.6-8.3 8-8.3 13.1 0 3.2 1 5.9 2.8 8.2 1.9 2.3 4.5 4.3 7.8 5.9 3.3 1.7 6.6 2.9 10 3.9 3.4.9 8.9 2.3 16.7 4.1 9.7 2.1 18.5 4.4 26.3 6.9 7.9 2.5 14.6 5.6 20.1 9.2 5.5 3.6 9.8 8.2 12.9 13.7 3.1 5.5 4.6 12.2 4.6 20.2-.2 9.8-2.9 18.4-8.2 26z" style="fill:#fff"/></svg>