<?xml version="1.0" encoding="utf-8"?>
<!-- Generator: Adobe Illustrator 26.2.1, SVG Export Plug-In . SVG Version: 6.00 Build 0)  -->
<svg version="1.1" id="Layer_1" xmlns="http://www.w3.org/2000/svg" xmlns:xlink="http://www.w3.org/1999/xlink" x="0px" y="0px"
	 viewBox="0 0 330 180" style="enable-background:new 0 0 330 180;" xml:space="preserve">
<path d="M4.4,100.6l75,75c5.9,5.9,15.4,5.9,21.2,0c5.9-5.9,5.9-15.4,0-21.2L51.2,105H315c8.3,0,15-6.7,15-15s-6.7-15-15-15H51.2
	l49.4-49.4c5.9-5.9,5.9-15.4,0-21.2C97.7,1.5,93.8,0,90,0c-3.8,0-7.7,1.5-10.6,4.4l-75,75C-1.5,85.3-1.5,94.7,4.4,100.6z"/>
</svg>
