<svg xmlns="http://www.w3.org/2000/svg" viewBox="0 0 493.3 493.3" style="enable-background:new 0 0 493.3 493.3" xml:space="preserve"><path d="M364.3 160.4c2.7-16.7-7.7-32.8-24.1-37-17-4.4-37.2-7.2-55.9-7.2-102.1 0-165.8 78.7-165.8 165.1 0 58.1 33.3 92.1 79.4 92.1 37.6 0 69.5-18.4 91.4-54.6h1.4c3.5 37.6 27.6 54.6 61 54.6 76.5 0 134.7-65.2 134.7-168.7C486.2 85.8 396.9 0 272.2 0 112 0 7.1 125.5 7.1 270.1c0 138.9 103.5 223.3 221.1 223.3 43.6 0 77.1-4.8 112.9-18.5 9.6-3.7 14.7-14.1 11.6-23.9-1.8-5.9-6-10.9-11.6-13.7-5.6-2.8-12-3.2-17.9-1.1-24.6 8.7-53.4 13.2-80.9 13.2C136.8 449.4 61 382 61 263.7c0-135.4 95-220.4 203.4-220.4 109.9 0 169.4 71.6 169.4 163.7 0 81.5-38.3 120.5-68.8 119.8-19.8-.7-24.8-19.8-17.7-61.7l17-104.7zm-70.3 21-9 61.1c-6.4 41.1-34 74.4-60.3 74.4-23.4 0-35.4-17-35.4-43.9 0-54.6 36.8-100.7 83.6-100.7 6 0 11.2.6 15.6 1.4 3.6.6 6 4 5.5 7.7z"/></svg>