<svg xmlns="http://www.w3.org/2000/svg" viewBox="0 0 16 16" style="enable-background:new 0 0 16 16" xml:space="preserve"><path d="M8 0C3.6 0 0 3.6 0 8c0 3.5 2.3 6.5 5.5 7.6.4.1.5-.2.5-.4v-1.5c-2 .4-2.5-.5-2.7-.9-.1-.2-.5-.9-.8-1.1-.3-.2-.7-.5 0-.5.6 0 1.1.6 1.2.8.7 1.2 1.9.9 2.3.7.1-.5.3-.9.5-1.1-1.8-.2-3.6-.9-3.6-4 0-.9.3-1.6.8-2.2-.1-.2-.4-1 .1-2.1 0 0 .7-.2 2.2.8.7-.1 1.3-.2 2-.2s1.4.1 2 .2c1.5-1 2.2-.8 2.2-.8.4 1.1.2 1.9.1 2.1.5.6.8 1.3.8 2.2 0 3.1-1.9 3.8-3.7 4 .4.2.6.7.6 1.4v2.2c0 .2.2.5.5.4C13.8 14.5 16 11.4 16 8c0-4.4-3.6-8-8-8z"/></svg>