<?xml version="1.0" encoding="utf-8"?>
<!-- Generator: Adobe Illustrator 26.2.1, SVG Export Plug-In . SVG Version: 6.00 Build 0)  -->
<svg version="1.1" id="Layer_1" xmlns="http://www.w3.org/2000/svg" xmlns:xlink="http://www.w3.org/1999/xlink" x="0px" y="0px"
	 viewBox="0 0 26 22" style="enable-background:new 0 0 26 22;" xml:space="preserve">
<style type="text/css">
	.st0{fill:#B5B5B5;}
</style>
<g>
	<path class="st0" d="M7.5,9.9c1.3,0,2.4-1.1,2.4-2.4S8.8,5.1,7.5,5.1S5.1,6.2,5.1,7.5C5.1,8.8,6.2,9.9,7.5,9.9z"/>
	<path class="st0" d="M24.5,0h-23C0.7,0,0,0.7,0,1.5v19C0,21.3,0.7,22,1.5,22h23c0.8,0,1.5-0.7,1.5-1.5v-19C26,0.7,25.3,0,24.5,0z
		 M23,13.5l-4.8-5.2c-0.4-0.4-1-0.4-1.4-0.1c0,0,0,0,0,0l-5.3,5.3l5.4,5.4H14l-4.8-4.8c-0.4-0.4-1-0.4-1.4,0L3,19V3h20V13.5z"/>
</g>
</svg>
