<svg version="1.1" id="svg2" xmlns="http://www.w3.org/2000/svg" x="0" y="0" viewBox="0 0 240 240" style="enable-background:new 0 0 240 240" xml:space="preserve"><style>.st0{fill:url(#path2995-1-0_00000016040361788945251010000010253740000843494835_)}.st3{fill:url(#path2991_00000181081562923696093910000014733100535960759988_)}</style><linearGradient id="path2995-1-0_00000178163045553731393950000008349006755612614837_" gradientUnits="userSpaceOnUse" x1="-1382.471" y1="195.989" x2="-1392.471" y2="219.321" gradientTransform="matrix(6 0 0 6 8450 -1138)"><stop offset="0" style="stop-color:#37aee2"/><stop offset="1" style="stop-color:#1e96c8"/></linearGradient><path id="path2995-1-0" style="fill:url(#path2995-1-0_00000178163045553731393950000008349006755612614837_)" d="M240 120c0 66.3-53.7 120-120 120S0 186.3 0 120 53.7 0 120 0s120 53.7 120 120z"/><path id="path2993" d="M98 175c-3.9 0-3.2-1.5-4.6-5.2L82 132.2 152.8 88l8.3 2.2-6.9 18.8L98 175z" style="fill:#c8daea"/><path id="path2989" d="M98 175c3 0 4.3-1.4 6-3 2.6-2.5 36-35 36-35l-20.5-5-19 12-2.5 30v1z" style="fill:#a9c9dd"/><linearGradient id="path2991_00000100347663022906399710000010677430428778045314_" gradientUnits="userSpaceOnUse" x1="129.008" y1="961.745" x2="154.008" y2="1001.745" gradientTransform="translate(0 -838)"><stop offset="0" style="stop-color:#eff7fc"/><stop offset="1" style="stop-color:#fff"/></linearGradient><path id="path2991" style="fill:url(#path2991_00000100347663022906399710000010677430428778045314_)" d="m100 144.4 48.4 35.7c5.5 3 9.5 1.5 10.9-5.1L179 82.2c2-8.1-3.1-11.7-8.4-9.3L55 117.5c-7.9 3.2-7.8 7.6-1.4 9.5l29.7 9.3L152 93c3.2-2 6.2-.9 3.8 1.3L100 144.4z"/></svg>